# Blender v2.76 (sub 0) OBJ File: 'building-core.blend'
# www.blender.org
o Cube.009
v -0.250000 -0.056818 1.000000
v -0.250000 -0.056818 0.500000
v -0.250000 0.443182 1.000000
v 0.750000 -0.056818 1.000000
v 0.250000 -0.056818 1.000000
v 0.250000 -0.056818 0.500000
v 0.750000 -0.056818 0.500000
v 0.750000 0.443182 1.000000
v 0.250000 0.443182 1.000000
v 0.250000 0.443182 0.500000
v 0.750000 0.443182 0.500000
v -0.750000 -0.056818 1.000000
v -0.750000 -0.056818 0.500000
v -0.750000 0.443182 1.000000
v -0.750000 0.443182 0.500000
v -0.250000 -0.056818 -1.000000
v -0.250000 0.443182 -0.500000
v 0.750000 -0.056818 -0.500000
v 0.250000 -0.056818 -0.500000
v 0.250000 -0.056818 -1.000000
v 0.750000 -0.056818 -1.000000
v 0.750000 0.443182 -0.500000
v 0.250000 0.443182 -0.500000
v 0.250000 0.443182 -1.000000
v 0.750000 0.443182 -1.000000
v -0.250000 -0.056818 -0.500000
v -0.750000 -0.056818 -0.500000
v -0.750000 -0.056818 -1.000000
v -0.750000 0.443182 -0.500000
v -0.750000 0.443182 -1.000000
v 0.250000 0.943182 1.000000
v -0.250000 0.943182 1.000000
v 0.250000 0.943182 0.500000
v -0.250000 0.443182 -1.000000
v -0.250000 0.943182 -0.500000
v -0.250000 0.943182 -1.000000
v 0.250000 0.943182 -1.000000
v 0.250000 0.443182 0.000000
v 0.250000 0.943182 0.000000
v -0.250000 0.943182 -0.000000
v 0.250000 0.943182 -0.500000
v -0.250000 0.443182 0.500000
v -0.250000 0.443182 -0.000000
v -0.250000 0.943182 0.500000
vt 0.000000 0.000000
vt 1.000000 0.000000
vt 1.000000 1.000000
vt 0.000000 1.000000
vn 0.000000 -1.000000 0.000000
vn 0.000000 1.000000 0.000000
vn -1.000000 -0.000000 0.000000
vn 1.000000 0.000000 -0.000000
vn 0.000000 0.000000 1.000000
vn -0.000000 -0.000000 -1.000000
s off
f 10/1/1 42/2/1 43/3/1
f 39/2/2 40/3/2 44/4/2
f 44/2/3 40/3/3 43/4/3
f 10/2/4 38/3/4 39/4/4
f 38/4/1 10/1/1 43/3/1
f 33/1/2 39/2/2 44/4/2
f 42/1/3 44/2/3 43/4/3
f 33/1/4 10/2/4 39/4/4
f 5/1/1 1/2/1 2/3/1
f 9/1/2 10/2/2 42/3/2
f 9/2/5 3/3/5 1/4/5
f 3/2/3 42/3/3 2/4/3
f 42/2/6 10/3/6 6/4/6
f 6/4/1 5/1/1 2/3/1
f 3/4/2 9/1/2 42/3/2
f 5/1/5 9/2/5 1/4/5
f 1/1/3 3/2/3 2/4/3
f 2/1/6 42/2/6 6/4/6
f 4/1/1 5/2/1 6/3/1
f 11/2/2 10/3/2 9/4/2
f 8/2/5 9/3/5 5/4/5
f 9/2/3 10/3/3 6/4/3
f 10/2/6 11/3/6 7/4/6
f 4/2/4 7/3/4 11/4/4
f 7/4/1 4/1/1 6/3/1
f 8/1/2 11/2/2 9/4/2
f 4/1/5 8/2/5 5/4/5
f 5/1/3 9/2/3 6/4/3
f 6/1/6 10/2/6 7/4/6
f 8/1/4 4/2/4 11/4/4
f 14/2/3 15/3/3 13/4/3
f 1/1/1 12/2/1 13/3/1
f 3/1/2 42/2/2 15/3/2
f 3/2/5 14/3/5 12/4/5
f 15/2/6 42/3/6 2/4/6
f 12/1/3 14/2/3 13/4/3
f 2/4/1 1/1/1 13/3/1
f 14/4/2 3/1/2 15/3/2
f 1/1/5 3/2/5 12/4/5
f 13/1/6 15/2/6 2/4/6
f 19/1/1 26/2/1 16/3/1
f 23/1/2 24/2/2 34/3/2
f 23/2/5 17/3/5 26/4/5
f 17/2/3 34/3/3 16/4/3
f 34/2/6 24/3/6 20/4/6
f 20/4/1 19/1/1 16/3/1
f 17/4/2 23/1/2 34/3/2
f 19/1/5 23/2/5 26/4/5
f 26/1/3 17/2/3 16/4/3
f 16/1/6 34/2/6 20/4/6
f 18/1/1 19/2/1 20/3/1
f 25/2/2 24/3/2 23/4/2
f 22/2/5 23/3/5 19/4/5
f 23/2/3 24/3/3 20/4/3
f 24/2/6 25/3/6 21/4/6
f 18/2/4 21/3/4 25/4/4
f 21/4/1 18/1/1 20/3/1
f 22/1/2 25/2/2 23/4/2
f 18/1/5 22/2/5 19/4/5
f 19/1/3 23/2/3 20/4/3
f 20/1/6 24/2/6 21/4/6
f 22/1/4 18/2/4 25/4/4
f 29/2/3 30/3/3 28/4/3
f 26/1/1 27/2/1 28/3/1
f 34/2/2 30/3/2 29/4/2
f 17/2/5 29/3/5 27/4/5
f 30/2/6 34/3/6 16/4/6
f 27/1/3 29/2/3 28/4/3
f 16/4/1 26/1/1 28/3/1
f 17/1/2 34/2/2 29/4/2
f 26/1/5 17/2/5 27/4/5
f 28/1/6 30/2/6 16/4/6
f 33/2/2 44/3/2 32/4/2
f 31/2/5 32/3/5 3/4/5
f 32/2/3 44/3/3 42/4/3
f 42/1/6 44/2/6 33/3/6
f 9/2/4 10/3/4 33/4/4
f 31/1/2 33/2/2 32/4/2
f 9/1/5 31/2/5 3/4/5
f 3/1/3 32/2/3 42/4/3
f 10/4/6 42/1/6 33/3/6
f 31/1/4 9/2/4 33/4/4
f 37/2/2 36/3/2 35/4/2
f 41/2/5 35/3/5 17/4/5
f 35/2/3 36/3/3 34/4/3
f 36/2/6 37/3/6 24/4/6
f 23/2/4 24/3/4 37/4/4
f 41/1/2 37/2/2 35/4/2
f 23/1/5 41/2/5 17/4/5
f 17/1/3 35/2/3 34/4/3
f 34/1/6 36/2/6 24/4/6
f 41/1/4 23/2/4 37/4/4
f 43/2/1 17/3/1 23/4/1
f 41/2/2 35/3/2 40/4/2
f 39/2/5 40/3/5 43/4/5
f 40/2/3 35/3/3 17/4/3
f 38/2/4 23/3/4 41/4/4
f 38/1/1 43/2/1 23/4/1
f 39/1/2 41/2/2 40/4/2
f 38/1/5 39/2/5 43/4/5
f 43/1/3 40/2/3 17/4/3
f 39/1/4 38/2/4 41/4/4
