# Blender v2.76 (sub 0) OBJ File: 'building-core.blend'
# www.blender.org
o Cube.009
v -0.250000 -0.250000 1.000000
v -0.250000 -0.250000 0.500000
v -0.250000 0.250000 1.000000
v 0.750000 -0.250000 1.000000
v 0.250000 -0.250000 1.000000
v 0.250000 -0.250000 0.500000
v 0.750000 -0.250000 0.500000
v 0.750000 0.250000 1.000000
v 0.250000 0.250000 1.000000
v 0.250000 0.250000 0.500000
v 0.750000 0.250000 0.500000
v -0.750000 -0.250000 1.000000
v -0.750000 -0.250000 0.500000
v -0.750000 0.250000 1.000000
v -0.750000 0.250000 0.500000
v -0.250000 -0.250000 -1.000000
v -0.250000 0.250000 -0.500000
v 0.750000 -0.250000 -0.500000
v 0.250000 -0.250000 -0.500000
v 0.250000 -0.250000 -1.000000
v 0.750000 -0.250000 -1.000000
v 0.750000 0.250000 -0.500000
v 0.250000 0.250000 -0.500000
v 0.250000 0.250000 -1.000000
v 0.750000 0.250000 -1.000000
v -0.250000 -0.250000 -0.500000
v -0.750000 -0.250000 -0.500000
v -0.750000 -0.250000 -1.000000
v -0.750000 0.250000 -0.500000
v -0.750000 0.250000 -1.000000
v 0.250000 0.750000 1.000000
v -0.250000 0.750000 1.000000
v 0.250000 0.750000 0.500000
v -0.250000 0.250000 -1.000000
v -0.250000 0.750000 -0.500000
v -0.250000 0.750000 -1.000000
v 0.250000 0.750000 -1.000000
v 0.250000 0.250000 0.000000
v 0.250000 0.750000 0.000000
v -0.250000 0.750000 -0.000000
v 0.250000 0.750000 -0.500000
v -0.250000 0.250000 0.500000
v -0.250000 0.250000 -0.000000
v -0.250000 0.750000 0.500000
vt 0.287486 0.677205
vt 0.287486 0.421215
vt 0.031495 0.421215
vt 0.031495 0.677205
vt 0.287486 0.997193
vt 0.031495 0.997193
vt 0.031495 0.741203
vt 0.287486 0.485212
vt 0.031495 0.485212
vt 0.287486 0.741203
vt 0.287486 0.933196
vt 0.031495 0.933196
vt 0.255487 0.997193
vt -0.000504 0.997193
vt -0.000504 0.741203
vt 0.511477 0.997193
vt 0.511477 0.741203
vt 0.255487 0.741203
vn 0.000000 -1.000000 0.000000
vn 0.000000 1.000000 0.000000
vn -1.000000 -0.000000 0.000000
vn 1.000000 0.000000 -0.000000
vn 0.000000 0.000000 1.000000
vn -0.000000 -0.000000 -1.000000
s off
f 10/1/1 42/2/1 43/3/1
f 39/4/2 40/3/2 44/2/2
f 44/5/3 40/6/3 43/7/3
f 10/8/4 38/9/4 39/7/4
f 38/4/1 10/1/1 43/3/1
f 33/1/2 39/4/2 44/2/2
f 42/10/3 44/5/3 43/7/3
f 33/10/4 10/8/4 39/7/4
f 5/1/1 1/2/1 2/3/1
f 9/11/2 10/12/2 42/4/2
f 9/13/5 3/14/5 1/15/5
f 3/5/3 42/6/3 2/7/3
f 42/13/6 10/16/6 6/17/6
f 6/4/1 5/1/1 2/3/1
f 3/1/2 9/11/2 42/4/2
f 5/18/5 9/13/5 1/15/5
f 1/10/3 3/5/3 2/7/3
f 2/18/6 42/13/6 6/17/6
f 4/1/1 5/2/1 6/3/1
f 11/12/2 10/4/2 9/1/2
f 8/13/5 9/14/5 5/15/5
f 9/5/3 10/6/3 6/7/3
f 10/13/6 11/16/6 7/17/6
f 4/8/4 7/9/4 11/7/4
f 7/4/1 4/1/1 6/3/1
f 8/11/2 11/12/2 9/1/2
f 4/18/5 8/13/5 5/15/5
f 5/10/3 9/5/3 6/7/3
f 6/18/6 10/13/6 7/17/6
f 8/10/4 4/8/4 11/7/4
f 14/5/3 15/6/3 13/7/3
f 1/1/1 12/2/1 13/3/1
f 3/11/2 42/12/2 15/4/2
f 3/13/5 14/14/5 12/15/5
f 15/13/6 42/16/6 2/17/6
f 12/10/3 14/5/3 13/7/3
f 2/4/1 1/1/1 13/3/1
f 14/1/2 3/11/2 15/4/2
f 1/18/5 3/13/5 12/15/5
f 13/18/6 15/13/6 2/17/6
f 19/1/1 26/2/1 16/3/1
f 23/11/2 24/12/2 34/4/2
f 23/13/5 17/14/5 26/15/5
f 17/5/3 34/6/3 16/7/3
f 34/13/6 24/16/6 20/17/6
f 20/4/1 19/1/1 16/3/1
f 17/1/2 23/11/2 34/4/2
f 19/18/5 23/13/5 26/15/5
f 26/10/3 17/5/3 16/7/3
f 16/18/6 34/13/6 20/17/6
f 18/1/1 19/2/1 20/3/1
f 25/12/2 24/4/2 23/1/2
f 22/13/5 23/14/5 19/15/5
f 23/5/3 24/6/3 20/7/3
f 24/13/6 25/16/6 21/17/6
f 18/8/4 21/9/4 25/7/4
f 21/4/1 18/1/1 20/3/1
f 22/11/2 25/12/2 23/1/2
f 18/18/5 22/13/5 19/15/5
f 19/10/3 23/5/3 20/7/3
f 20/18/6 24/13/6 21/17/6
f 22/10/4 18/8/4 25/7/4
f 29/5/3 30/6/3 28/7/3
f 26/1/1 27/2/1 28/3/1
f 34/12/2 30/4/2 29/1/2
f 17/13/5 29/14/5 27/15/5
f 30/13/6 34/16/6 16/17/6
f 27/10/3 29/5/3 28/7/3
f 16/4/1 26/1/1 28/3/1
f 17/11/2 34/12/2 29/1/2
f 26/18/5 17/13/5 27/15/5
f 28/18/6 30/13/6 16/17/6
f 33/12/2 44/4/2 32/1/2
f 31/16/5 32/13/5 3/18/5
f 32/5/3 44/6/3 42/7/3
f 42/18/6 44/13/6 33/16/6
f 9/8/4 10/9/4 33/7/4
f 31/11/2 33/12/2 32/1/2
f 9/17/5 31/16/5 3/18/5
f 3/10/3 32/5/3 42/7/3
f 10/17/6 42/18/6 33/16/6
f 31/10/4 9/8/4 33/7/4
f 37/4/2 36/3/2 35/2/2
f 41/16/5 35/13/5 17/18/5
f 35/5/3 36/6/3 34/7/3
f 36/13/6 37/16/6 24/17/6
f 23/8/4 24/9/4 37/7/4
f 41/1/2 37/4/2 35/2/2
f 23/17/5 41/16/5 17/18/5
f 17/10/3 35/5/3 34/7/3
f 34/18/6 36/13/6 24/17/6
f 41/10/4 23/8/4 37/7/4
f 43/2/1 17/3/1 23/4/1
f 41/12/2 35/4/2 40/1/2
f 39/13/5 40/14/5 43/15/5
f 40/5/3 35/6/3 17/7/3
f 38/8/4 23/9/4 41/7/4
f 38/1/1 43/2/1 23/4/1
f 39/11/2 41/12/2 40/1/2
f 38/18/5 39/13/5 43/15/5
f 43/10/3 40/5/3 17/7/3
f 39/10/4 38/8/4 41/7/4
