# Blender v2.76 (sub 0) OBJ File: 'tank.blend'
# www.blender.org
o Cube.005
v -0.125000 0.258929 0.125000
v 0.125000 0.008929 0.375000
v -0.125000 0.008929 0.375000
v 0.125000 0.258929 0.375000
v -0.125000 0.258929 0.375000
v -0.125000 0.008929 -0.125000
v -0.125000 0.008929 -0.375000
v 0.125000 0.008929 -0.375000
v 0.125000 0.258929 -0.125000
v -0.125000 0.258929 -0.125000
v -0.125000 0.258929 -0.375000
v 0.125000 0.258929 -0.375000
v 0.375000 0.008929 0.125000
v 0.125000 0.008929 0.125000
v 0.125000 0.008929 -0.125000
v 0.375000 0.008929 -0.125000
v 0.375000 0.258929 0.125000
v 0.125000 0.258929 0.125000
v 0.375000 0.258929 -0.125000
v -0.125000 0.008929 0.125000
v -0.375000 0.008929 0.125000
v -0.375000 0.008929 -0.125000
v -0.375000 0.258929 0.125000
v -0.375000 0.258929 -0.125000
v 0.125000 0.508929 0.125000
v -0.125000 0.508929 0.125000
v -0.125000 0.508929 -0.125000
v 0.125000 0.508929 -0.125000
vt 1.000000 0.000000
vt 1.000000 1.000000
vt 0.000000 1.000000
vt 0.000000 0.000000
vn 0.000000 1.000000 0.000000
vn -0.000000 0.000000 1.000000
vn -1.000000 0.000000 -0.000000
vn 0.000000 -0.000000 -1.000000
vn 1.000000 -0.000000 0.000000
vn 0.000000 -1.000000 0.000000
s off
f 28/1/1 27/2/1 26/3/1
f 25/1/2 26/2/2 1/3/2
f 26/1/3 27/2/3 10/3/3
f 27/1/4 28/2/4 9/3/4
f 18/1/5 9/2/5 28/3/5
f 25/4/1 28/1/1 26/3/1
f 18/4/2 25/1/2 1/3/2
f 1/4/3 26/1/3 10/3/3
f 10/4/4 27/1/4 9/3/4
f 25/4/5 18/1/5 28/3/5
f 20/1/6 6/2/6 15/3/6
f 14/4/6 20/1/6 15/3/6
f 4/1/2 5/2/2 3/3/2
f 3/1/6 20/2/6 14/3/6
f 18/1/1 1/2/1 5/3/1
f 5/1/3 1/2/3 20/3/3
f 2/1/5 14/2/5 18/3/5
f 2/4/2 4/1/2 3/3/2
f 2/4/6 3/1/6 14/3/6
f 4/4/1 18/1/1 5/3/1
f 3/4/3 5/1/3 20/3/3
f 4/4/5 2/1/5 18/3/5
f 12/1/1 11/2/1 10/3/1
f 10/1/3 11/2/3 7/3/3
f 11/1/4 12/2/4 8/3/4
f 6/1/6 7/2/6 8/3/6
f 15/1/5 8/2/5 12/3/5
f 9/4/1 12/1/1 10/3/1
f 6/4/3 10/1/3 7/3/3
f 7/4/4 11/1/4 8/3/4
f 15/4/6 6/1/6 8/3/6
f 9/4/5 15/1/5 12/3/5
f 14/1/6 15/2/6 16/3/6
f 17/1/2 18/2/2 14/3/2
f 13/1/5 16/2/5 19/3/5
f 19/1/1 9/2/1 18/3/1
f 15/4/4 9/1/4 19/2/4
f 13/4/6 14/1/6 16/3/6
f 13/4/2 17/1/2 14/3/2
f 17/4/5 13/1/5 19/3/5
f 17/4/1 19/1/1 18/3/1
f 16/3/4 15/4/4 19/2/4
f 23/1/3 24/2/3 22/3/3
f 21/1/6 22/2/6 6/3/6
f 10/1/1 24/2/1 23/3/1
f 1/1/2 23/2/2 21/3/2
f 24/1/4 10/2/4 6/3/4
f 21/4/3 23/1/3 22/3/3
f 20/4/6 21/1/6 6/3/6
f 1/4/1 10/1/1 23/3/1
f 20/4/2 1/1/2 21/3/2
f 22/4/4 24/1/4 6/3/4
